<svg xmlns="http://www.w3.org/2000/svg" viewBox="0 0 120 200" width="240" height="400"><defs><radialGradient id="glow" cx="0.5" cy="0.45" r="0.5"><stop offset="0" stop-color="#7fb8ff" stop-opacity="0.35"/><stop offset="1" stop-color="#7fb8ff" stop-opacity="0"/></radialGradient></defs><ellipse cx="60" cy="88.0" rx="58" ry="90.0" fill="url(#glow)"/><polygon points="52.0,138 52.0,35.6 60,18 60,138" fill="#d6ecff"/><polygon points="60,138 60,18 68.0,35.6 68.0,138" fill="#7fb2e6"/><line x1="60" y1="134" x2="60" y2="41.6" stroke="#ffffff" stroke-opacity="0.6" stroke-width="2"/><polygon points="52.0,138 52.0,35.6 60,18 68.0,35.6 68.0,138" fill="none" stroke="#2b2b2b" stroke-opacity="0.55" stroke-width="1.5" stroke-linejoin="round"/><path d="M36.0,136 Q32.0,130 38.0,129 L82.0,129 Q88.0,130 84.0,136 L80.0,144 L40.0,144 Z" fill="#c0c8d8" stroke="#2b2b2b" stroke-opacity="0.6" stroke-width="1.5"/><rect x="55" y="143" width="10" height="34" rx="2" fill="#24345a" stroke="#1a1a1a" stroke-opacity="0.5" stroke-width="1"/><line x1="55" y1="150.0" x2="65" y2="147.0" stroke="#000" stroke-opacity="0.3" stroke-width="1.5"/><line x1="55" y1="156.5" x2="65" y2="153.5" stroke="#000" stroke-opacity="0.3" stroke-width="1.5"/><line x1="55" y1="163.0" x2="65" y2="160.0" stroke="#000" stroke-opacity="0.3" stroke-width="1.5"/><line x1="55" y1="169.5" x2="65" y2="166.5" stroke="#000" stroke-opacity="0.3" stroke-width="1.5"/><line x1="55" y1="176.0" x2="65" y2="173.0" stroke="#000" stroke-opacity="0.3" stroke-width="1.5"/><circle cx="60" cy="182" r="6.5" fill="#c0c8d8" stroke="#2b2b2b" stroke-opacity="0.6" stroke-width="1.5"/><polygon points="60,129 66,136 60,143 54,136" fill="#3c7dff" stroke="#ffffff" stroke-width="1.2"/><circle cx="60" cy="182" r="2.6" fill="#3c7dff"/></svg>
