<svg xmlns="http://www.w3.org/2000/svg" viewBox="0 0 120 200" width="240" height="400"><polygon points="52.5,138 52.5,36.5 60,20 60,138" fill="#eef1f5"/><polygon points="60,138 60,20 67.5,36.5 67.5,138" fill="#b4bdc8"/><line x1="60" y1="134" x2="60" y2="42.5" stroke="#ffffff" stroke-opacity="0.6" stroke-width="2"/><polygon points="52.5,138 52.5,36.5 60,20 67.5,36.5 67.5,138" fill="none" stroke="#2b2b2b" stroke-opacity="0.55" stroke-width="1.5" stroke-linejoin="round"/><path d="M37.0,136 Q33.0,130 39.0,129 L81.0,129 Q87.0,130 83.0,136 L79.0,144 L41.0,144 Z" fill="#c9a54a" stroke="#2b2b2b" stroke-opacity="0.6" stroke-width="1.5"/><rect x="55" y="143" width="10" height="34" rx="2" fill="#7a1f1f" stroke="#1a1a1a" stroke-opacity="0.5" stroke-width="1"/><line x1="55" y1="150.0" x2="65" y2="147.0" stroke="#000" stroke-opacity="0.3" stroke-width="1.5"/><line x1="55" y1="156.5" x2="65" y2="153.5" stroke="#000" stroke-opacity="0.3" stroke-width="1.5"/><line x1="55" y1="163.0" x2="65" y2="160.0" stroke="#000" stroke-opacity="0.3" stroke-width="1.5"/><line x1="55" y1="169.5" x2="65" y2="166.5" stroke="#000" stroke-opacity="0.3" stroke-width="1.5"/><line x1="55" y1="176.0" x2="65" y2="173.0" stroke="#000" stroke-opacity="0.3" stroke-width="1.5"/><circle cx="60" cy="182" r="6.5" fill="#c9a54a" stroke="#2b2b2b" stroke-opacity="0.6" stroke-width="1.5"/></svg>
