<svg xmlns="http://www.w3.org/2000/svg" viewBox="0 0 120 200" width="240" height="400"><defs><radialGradient id="glow" cx="0.5" cy="0.45" r="0.5"><stop offset="0" stop-color="#7fdcff" stop-opacity="0.62"/><stop offset="1" stop-color="#7fdcff" stop-opacity="0"/></radialGradient></defs><ellipse cx="60" cy="83.0" rx="58" ry="95.0" fill="url(#glow)"/><path d="M34.0,140 C22.0,122 14.0,114 10.0,98 C18.0,114 24.0,130 32.0,146 Z" fill="#ffffff" stroke="#c9a54a" stroke-width="1.5" opacity="0.95"/><path d="M86.0,140 C98.0,122 106.0,114 110.0,98 C102.0,114 96.0,130 88.0,146 Z" fill="#ffffff" stroke="#c9a54a" stroke-width="1.5" opacity="0.95"/><polygon points="51.0,138 51.0,27.8 60,8 60,138" fill="#ffffff"/><polygon points="60,138 60,8 69.0,27.8 69.0,138" fill="#5ec8ff"/><line x1="60" y1="134" x2="60" y2="33.8" stroke="#ffffff" stroke-opacity="0.6" stroke-width="2"/><polygon points="51.0,138 51.0,27.8 60,8 69.0,27.8 69.0,138" fill="none" stroke="#2b2b2b" stroke-opacity="0.55" stroke-width="1.5" stroke-linejoin="round"/><path d="M30.0,136 Q26.0,130 32.0,129 L88.0,129 Q94.0,130 90.0,136 L86.0,144 L34.0,144 Z" fill="#ffffff" stroke="#2b2b2b" stroke-opacity="0.6" stroke-width="1.5"/><rect x="55" y="143" width="10" height="34" rx="2" fill="#1b5e8a" stroke="#1a1a1a" stroke-opacity="0.5" stroke-width="1"/><line x1="55" y1="150.0" x2="65" y2="147.0" stroke="#000" stroke-opacity="0.3" stroke-width="1.5"/><line x1="55" y1="156.5" x2="65" y2="153.5" stroke="#000" stroke-opacity="0.3" stroke-width="1.5"/><line x1="55" y1="163.0" x2="65" y2="160.0" stroke="#000" stroke-opacity="0.3" stroke-width="1.5"/><line x1="55" y1="169.5" x2="65" y2="166.5" stroke="#000" stroke-opacity="0.3" stroke-width="1.5"/><line x1="55" y1="176.0" x2="65" y2="173.0" stroke="#000" stroke-opacity="0.3" stroke-width="1.5"/><circle cx="60" cy="182" r="6.5" fill="#ffffff" stroke="#2b2b2b" stroke-opacity="0.6" stroke-width="1.5"/><polygon points="60,129 66,136 60,143 54,136" fill="#00c2ff" stroke="#ffffff" stroke-width="1.2"/><circle cx="60" cy="182" r="2.6" fill="#00c2ff"/><polygon points="67.9,115.5 68.7,118.7 71.9,119.5 68.7,120.3 67.9,123.4 67.1,120.3 64.0,119.5 67.1,118.7" fill="#ffffff" opacity="0.9653108050952024"/><polygon points="95.7,138.5 96.8,142.7 100.9,143.7 96.8,144.7 95.7,148.9 94.7,144.7 90.5,143.7 94.7,142.7" fill="#ffffff" opacity="0.7988203068047103"/><polygon points="89.4,20.7 90.4,24.7 94.4,25.7 90.4,26.6 89.4,30.6 88.5,26.6 84.5,25.7 88.5,24.7" fill="#ffffff" opacity="0.740981388117452"/><polygon points="86.5,83.5 87.6,88.1 92.2,89.3 87.6,90.4 86.5,95.0 85.3,90.4 80.7,89.3 85.3,88.1" fill="#ffffff" opacity="0.741523996326596"/><polygon points="81.2,117.8 81.8,120.6 84.6,121.2 81.8,121.9 81.2,124.7 80.5,121.9 77.7,121.2 80.5,120.6" fill="#ffffff" opacity="0.731175990981752"/><polygon points="21.1,41.0 22.2,45.4 26.7,46.5 22.2,47.6 21.1,52.1 20.0,47.6 15.6,46.5 20.0,45.4" fill="#ffffff" opacity="0.7279480881975335"/><polygon points="100.0,65.3 100.7,68.4 103.8,69.1 100.7,69.9 100.0,73.0 99.2,69.9 96.1,69.1 99.2,68.4" fill="#ffffff" opacity="0.7525028845620803"/><polygon points="23.0,74.6 23.7,77.2 26.2,77.8 23.7,78.4 23.0,81.0 22.4,78.4 19.8,77.8 22.4,77.2" fill="#ffffff" opacity="0.8855770177287512"/></svg>
